<svg xmlns="http://www.w3.org/2000/svg" xmlns:xlink="http://www.w3.org/1999/xlink" style="vertical-align:-4.005ex" width="102.815ex" height="9.134ex" viewBox="0 -2208.6 44267.6 3932.8" ><defs><path id="i" stroke-width="1" d="M31 1143q0 11 18 11h10q13 0 16-2t14-16q101-123 180-263t132-288 88-291T544-8t28-291 11-284v-60q0-9-6-11-2-1-69-1-43 0-45 1-4 1-5 7t-1 38q0 551-86 949t-271 697q-13 22-39 61t-30 45z"/><path id="q" stroke-width="1" d="M94 250q0 69 10 131t23 107 37 88 38 67 42 52 33 34 25 21h17q14 0 14-9 0-3-17-21t-41-53-49-86-42-138-17-193 17-192 41-139 49-86 42-53 17-21q0-9-15-9h-16l-28 24q-94 85-137 212T94 250z"/><path id="e" stroke-width="1" d="M55 458q1 2 17 109l16 107q0 2 20 2h20v-4q0-10 15-17t52-9 169-2h121v-39l-68-93-30-40q-21-28-27-37t-21-32-20-36-14-37-13-46-8-54-6-68-3-82V52q0-14-1-24v-9q-4-17-19-29t-34-12q-11 0-21 3T179 0t-11 40q0 158 97 328 20 32 84 121l46 63h-93q-174 0-183-6-6-3-11-24t-10-43l-3-21v-3H55v3z"/><path id="h" stroke-width="1" d="M127 463q-27 0-42 17t-16 44q0 55 48 98t116 43q35 0 44-1 74-12 113-53t40-89q0-52-34-101t-94-71l-3-2q0-1 9-3t29-9 38-21q82-53 82-140 0-79-62-138T238-22q-80 0-138 43T42 130q0 28 18 45t45 18q28 0 46-18t18-45q0-11-3-20t-7-16-11-12-12-8-10-4-8-3l-4-1q51-45 124-45 55 0 83 53 17 33 17 101v20q0 95-64 127-15 6-61 7l-42 1-3 2q-2 3-2 16 0 18 8 18 28 0 58 5 34 5 62 42t28 112v8q0 57-35 79-22 14-47 14-32 0-59-11t-38-23-11-12h3q3-1 8-2t10-5 12-7 10-11 8-15 3-20q0-22-14-39t-45-18z"/><path id="g" stroke-width="1" d="M96 585q56 81 153 81 48 0 96-26t78-92q37-83 37-228 0-155-43-237-20-42-55-67t-61-31-51-7q-26 0-52 6t-61 32-55 67q-43 82-43 237 0 174 57 265zm225 12q-30 32-71 32-42 0-72-32-25-26-33-72t-8-192q0-158 8-208t36-79q28-30 69-30 40 0 68 30 29 30 36 84t8 203q0 145-8 191t-33 73z"/><path id="f" stroke-width="1" d="M213 578l-13-5q-14-5-40-10t-58-7H83v46h19q47 2 87 15t56 24 28 22q2 3 12 3 9 0 17-6V361l1-300q7-7 12-9t24-4 62-2h26V0h-11q-21 3-159 3-136 0-157-3H88v46h64q16 0 25 1t16 3 8 2 6 5 6 4v517z"/><path id="r" stroke-width="1" d="M60 749l4 1h22l28-24q94-85 137-212t43-264q0-68-10-131T261 12t-37-88-38-67-41-51-32-33-23-19l-4-4H63q-3 0-5 3t-3 9q1 1 11 13Q221-64 221 250T66 725q-10 12-11 13 0 8 5 11z"/><path id="a" stroke-width="1" d="M837 1154q6-6 6-9 0-4-25-39t-65-104-86-161-93-237-80-305q-77-383-77-908 0-32-1-38t-5-7q-2-1-45-1-67 0-69 1-5 2-5 11t-1 60q2 183 13 341t43 352 85 360 142 343 211 323q2 3 5 6t4 5 2 3 3 2 3 1 5 1 6 0h24z"/><path id="c" stroke-width="1" d="M843-635q0-3-6-9h-17q-19 0-20 1-8 8-15 17-101 123-180 263T473-75t-88 291-55 302-28 291-11 284v60q0 9 5 11 2 1 70 1 43 0 45-1 4-1 5-7t1-38q0-590 100-1010t316-726q10-14 10-18z"/><path id="b" stroke-width="1" d="M413-9h-6q-5 0-19-1t-34 0q-54 0-57 1t-4 4q-2 10-2 132v173q0 302 1 305l4 4q2 1 70 1h41q5 0 5-1 4 0 4-17t1-119V127q0-136-4-136z"/><path id="d" stroke-width="1" d="M462 0q-18 3-129 3-116 0-134-3h-9v46h58q7 0 17 2t14 5 7 8q1 2 1 54v50H28v46l151 231q153 232 155 233 2 2 21 2h18l6-6V211h92v-46h-92v-51-48q0-7 6-12 8-7 57-8h29V0h-9zM293 211v334L74 212l109-1h110z"/><path id="k" stroke-width="1" d="M56-644h-6q-19 0-19 9 0 3 6 13 32 43 63 95 186 299 271 697t86 949q0 42 5 45 2 1 58 1 55 0 57-1 5-2 5-11t1-60q-2-183-13-341t-43-352-85-360-142-343T89-626q-11-14-14-16t-14-2h-5z"/><path id="j" stroke-width="1" d="M579-9h-6q-5 0-19-1t-34 0q-54 0-57 1t-4 4q-2 10-2 132v173q0 302 1 305l4 4q2 1 70 1h41q5 0 5-1 4 0 4-17t1-119V127q0-136-4-136z"/><path id="l" stroke-width="1" d="M56 237v13l14 20h765q-116 87-143 223v3q0 2-1 3 0 12 17 12h3q9 0 12-1t6-4 3-9 3-16 8-25q22-67 73-120t119-75q9-3 9-11 0-6-5-9t-24-10-38-19q-41-26-71-60t-45-67-21-50-8-31q-2-10-5-12t-16-3q-20 0-20 11 0 7 5 25 32 126 139 205H70q-14 7-14 20z"/><path id="m" stroke-width="1" d="M84 237v13l14 20h581q15-8 15-20t-15-20H98q-14 7-14 20z"/><path id="n" stroke-width="1" d="M109 429q-27 0-43 18t-16 44q0 71 53 123t132 52q91 0 152-56t62-145q0-43-20-82t-48-68-80-74q-36-31-100-92l-59-56 76-1q157 0 167 5 7 2 24 89v3h40v-3q-1-3-13-91T421 3V0H50v31q0 7 6 15t30 35q29 32 50 56 9 10 34 37t34 37 29 33 28 34 23 30 21 32 15 29 13 32 7 30 3 33q0 63-34 109t-97 46q-33 0-58-17t-35-33-10-19q0-1 5-1 18 0 37-14t19-46q0-25-16-42t-45-18z"/><path id="o" stroke-width="1" d="M580 514q0 11 16 11h13q2 0 4-1t2-1 2-3 2-3 3-5q37-74 98-131t111-81 96-37q17-5 17-13t-9-11-37-11-58-24Q696 134 622-12q-4-9-7-10t-15-2q-20 0-20 7 0 4 5 17 35 69 86 123l10 10H70q-14 7-14 20 0 15 16 20h653l10 8q39 30 117 69-1 1-18 9t-45 24-54 36l-10 8H72q-16 5-16 20 0 13 14 20h611l-10 10q-33 35-62 81t-29 56z"/><path id="p" stroke-width="1" d="M56 347q0 13 14 20h637q15-8 15-20 0-11-14-19l-318-1H72q-16 5-16 20zm0-194q0 15 16 20h636q14-10 14-20 0-13-15-20H70q-14 7-14 20z"/><path id="s" stroke-width="1" d="M56 237v13l14 20h299v150l1 150q10 13 19 13 13 0 20-15V270h298q15-8 15-20t-15-20H409V-68q-8-14-18-14h-4q-12 0-18 14v298H70q-14 7-14 20z"/><path id="t" stroke-width="1" d="M78 60q0 24 17 42t43 18q24 0 42-16t19-43q0-25-17-43T139 0 96 17 78 60z"/></defs><g fill="white" stroke="currentColor" stroke-width="0" transform="scale(1 -1)"><g transform="translate(0 2150)"><use y="-1156" xlink:href="#a"/><use transform="matrix(1 0 0 .44462 0 -2033.665)" xlink:href="#b"/><use y="-3155" xlink:href="#c"/></g><g transform="translate(1028)"><g transform="translate(0 1350)"><use xlink:href="#d"/><use x="500" xlink:href="#e"/></g><use x="250" y="-50" xlink:href="#f"/><use x="250" y="-1450" xlink:href="#g"/></g><g transform="translate(3029)"><g transform="translate(0 1350)"><use xlink:href="#h"/><use x="500" xlink:href="#g"/></g><use x="250" y="-50" xlink:href="#g"/><use x="250" y="-1450" xlink:href="#f"/></g><g transform="translate(4197 2150)"><use y="-1155" xlink:href="#i"/><use transform="matrix(1 0 0 .44623 0 -2033.645)" xlink:href="#j"/><use y="-3155" xlink:href="#k"/></g><use x="5350" xlink:href="#l"/><g transform="translate(6629 2150)"><use y="-1156" xlink:href="#a"/><use transform="matrix(1 0 0 .44462 0 -2033.665)" xlink:href="#b"/><use y="-3155" xlink:href="#c"/></g><g transform="translate(7657)"><g transform="translate(139 1350)"><use xlink:href="#f"/><use x="500" xlink:href="#e"/></g><use x="389" y="-50" xlink:href="#f"/><g transform="translate(0 -1450)"><use xlink:href="#m"/><use x="778" xlink:href="#f"/></g></g><g transform="translate(9936)"><g transform="translate(0 1350)"><use xlink:href="#h"/><use x="500" xlink:href="#g"/></g><use x="250" y="-50" xlink:href="#g"/><use x="250" y="-1450" xlink:href="#f"/></g><g transform="translate(11104 2150)"><use y="-1155" xlink:href="#i"/><use transform="matrix(1 0 0 .44623 0 -2033.645)" xlink:href="#j"/><use y="-3155" xlink:href="#k"/></g><use x="12257" xlink:href="#l"/><g transform="translate(13536 2150)"><use y="-1156" xlink:href="#a"/><use transform="matrix(1 0 0 .44462 0 -2033.665)" xlink:href="#b"/><use y="-3155" xlink:href="#c"/></g><g transform="translate(14564)"><g transform="translate(139 1350)"><use xlink:href="#f"/><use x="500" xlink:href="#e"/></g><use x="389" y="-50" xlink:href="#f"/><g transform="translate(0 -1450)"><use xlink:href="#m"/><use x="778" xlink:href="#f"/></g></g><g transform="translate(16843)"><g transform="translate(139 1350)"><use xlink:href="#f"/><use x="500" xlink:href="#h"/></g><g transform="translate(0 -50)"><use xlink:href="#m"/><use x="778" xlink:href="#f"/></g><use x="389" y="-1450" xlink:href="#n"/></g><g transform="translate(18289 2150)"><use y="-1155" xlink:href="#i"/><use transform="matrix(1 0 0 .44623 0 -2033.645)" xlink:href="#j"/><use y="-3155" xlink:href="#k"/></g><use x="19443" xlink:href="#l"/><g transform="translate(20721 2150)"><use y="-1156" xlink:href="#a"/><use transform="matrix(1 0 0 .44462 0 -2033.665)" xlink:href="#b"/><use y="-3155" xlink:href="#c"/></g><g transform="translate(21749)"><use x="389" y="1350" xlink:href="#d"/><use x="389" y="-50" xlink:href="#n"/><g transform="translate(0 -1450)"><use xlink:href="#m"/><use x="778" xlink:href="#h"/></g></g><g transform="translate(24028)"><g transform="translate(139 1350)"><use xlink:href="#f"/><use x="500" xlink:href="#h"/></g><g transform="translate(0 -50)"><use xlink:href="#m"/><use x="778" xlink:href="#f"/></g><use x="389" y="-1450" xlink:href="#n"/></g><g transform="translate(25474 2150)"><use y="-1155" xlink:href="#i"/><use transform="matrix(1 0 0 .44623 0 -2033.645)" xlink:href="#j"/><use y="-3155" xlink:href="#k"/></g><use x="26628" xlink:href="#l"/><g transform="translate(27906 2150)"><use y="-1156" xlink:href="#a"/><use transform="matrix(1 0 0 .44462 0 -2033.665)" xlink:href="#b"/><use y="-3155" xlink:href="#c"/></g><g transform="translate(28934)"><use x="389" y="1350" xlink:href="#d"/><use x="389" y="-50" xlink:href="#n"/><g transform="translate(0 -1450)"><use xlink:href="#m"/><use x="778" xlink:href="#h"/></g></g><g transform="translate(31213)"><use x="389" y="1350" xlink:href="#f"/><g transform="translate(0 -50)"><use xlink:href="#m"/><use x="778" xlink:href="#e"/></g><g transform="translate(139 -1450)"><use xlink:href="#f"/><use x="500" xlink:href="#f"/></g></g><g transform="translate(32659 2150)"><use y="-1155" xlink:href="#i"/><use transform="matrix(1 0 0 .44623 0 -2033.645)" xlink:href="#j"/><use y="-3155" xlink:href="#k"/></g><use x="33813" xlink:href="#o"/><use x="35091" xlink:href="#f"/><use x="35869" xlink:href="#p"/><g transform="translate(36926)"><use xlink:href="#d"/><use x="500" xlink:href="#e"/></g><use x="37927" xlink:href="#q"/><use x="38316" xlink:href="#m"/><use x="39095" xlink:href="#e"/><use x="39595" xlink:href="#r"/><use x="40207" xlink:href="#s"/><g transform="translate(41208)"><use xlink:href="#h"/><use x="500" xlink:href="#g"/></g><use x="42209" xlink:href="#q"/><g transform="translate(42598)"><use xlink:href="#f"/><use x="500" xlink:href="#f"/></g><use x="43599" xlink:href="#r"/><use x="43989" xlink:href="#t"/></g></svg>
